<svg width="21" height="21" viewBox="0 0 21 21" fill="none" xmlns="http://www.w3.org/2000/svg">
<path d="M12.0897 10.2461L9.75013 9.15442C9.54597 9.05963 9.37826 9.16588 9.37826 9.39192V11.4482C9.37826 11.6742 9.54597 11.7805 9.75013 11.6857L12.0887 10.594C12.2939 10.4982 12.2939 10.3419 12.0897 10.2461ZM10.4199 0.420044C4.89701 0.420044 0.419922 4.89713 0.419922 10.42C0.419922 15.943 4.89701 20.42 10.4199 20.42C15.9428 20.42 20.4199 15.943 20.4199 10.42C20.4199 4.89713 15.9428 0.420044 10.4199 0.420044ZM10.4199 14.4825C5.30117 14.4825 5.21159 14.0211 5.21159 10.42C5.21159 6.819 5.30117 6.35754 10.4199 6.35754C15.5387 6.35754 15.6283 6.819 15.6283 10.42C15.6283 14.0211 15.5387 14.4825 10.4199 14.4825Z" fill="#BDBDBD"/>
</svg>
